<?xml version="1.0" standalone="no"?>
<!DOCTYPE svg PUBLIC "-//W3C//DTD SVG 20010904//EN"
 "http://www.w3.org/TR/2001/REC-SVG-20010904/DTD/svg10.dtd">
<svg version="1.0" xmlns="http://www.w3.org/2000/svg"
 width="200.000000pt" height="200.000000pt" viewBox="0 0 200.000000 200.000000"
 preserveAspectRatio="xMidYMid meet">

<g transform="translate(0.000000,200.000000) scale(0.100000,-0.100000)"
fill="#000000" stroke="none">
<path d="M945 1964 c-14 -15 -25 -36 -25 -48 0 -17 -34 -40 -172 -117 -95 -53
-242 -136 -327 -183 -143 -81 -155 -86 -171 -71 -27 24 -79 16 -103 -17 -17
-23 -18 -31 -8 -56 12 -29 46 -52 79 -52 12 0 52 -64 130 -204 61 -112 112
-209 112 -216 0 -7 -51 -104 -112 -216 -96 -172 -117 -204 -136 -204 -26 0
-72 -41 -72 -64 0 -30 23 -65 49 -74 27 -9 64 -1 75 16 3 6 62 -21 135 -61
509 -285 520 -291 532 -318 12 -32 58 -54 89 -44 12 4 28 21 36 39 15 31 25
38 139 101 33 19 164 92 290 163 201 113 232 128 246 116 18 -16 62 -18 89 -4
10 5 21 24 25 40 9 40 -15 77 -57 88 -29 7 -43 27 -145 208 -61 109 -112 205
-112 212 -1 7 31 70 70 140 152 271 159 282 184 282 27 0 75 45 75 71 0 10
-10 30 -23 45 -27 31 -68 35 -96 10 -20 -18 -12 -22 -407 200 -27 16 -98 56
-157 89 -88 49 -107 64 -107 83 0 31 -43 72 -75 72 -15 0 -36 -11 -50 -26z m2
-101 c-2 -5 -75 -136 -162 -293 -87 -157 -164 -291 -170 -299 -11 -11 -41 4
-179 89 -147 90 -166 105 -160 124 3 11 9 24 13 28 3 4 145 85 316 182 273
154 357 195 342 169z m434 -169 c173 -97 317 -179 321 -183 4 -3 9 -17 12 -31
6 -23 -5 -32 -159 -124 -101 -60 -169 -96 -175 -90 -15 15 -330 581 -330 593
0 6 4 11 9 11 5 0 150 -79 322 -176z m-335 114 c94 -160 313 -561 309 -568 -6
-10 -322 -206 -347 -215 -10 -4 -79 33 -197 105 -171 106 -180 113 -169 133
48 90 312 565 320 575 22 26 58 14 84 -30z m-612 -478 c86 -52 156 -98 156
-102 0 -11 -104 -198 -110 -198 -5 1 -211 369 -219 392 -5 16 3 11 173 -92z
m1193 -100 c-86 -153 -115 -197 -123 -187 -7 7 -33 51 -59 99 l-46 87 38 25
c71 46 288 175 295 176 4 0 -44 -90 -105 -200z m-835 -119 c90 -55 163 -105
163 -111 0 -11 -317 -210 -335 -210 -10 0 -120 192 -120 210 0 18 110 210 120
210 5 0 82 -45 172 -99z m650 -10 l57 -101 -55 -98 c-30 -53 -59 -101 -64
-106 -8 -8 -350 192 -350 204 0 10 334 209 345 206 6 -1 36 -48 67 -105z
m-258 -230 c91 -56 168 -106 171 -111 3 -4 -45 -97 -106 -207 -62 -109 -135
-240 -163 -290 l-51 -93 -40 0 c-38 0 -42 3 -66 48 -14 26 -84 153 -157 283
-72 129 -132 241 -134 247 -4 16 342 232 363 228 9 -2 91 -49 183 -105z m-646
4 c28 -53 52 -99 52 -103 0 -9 -321 -204 -327 -199 -5 6 209 396 217 396 3 1
29 -42 58 -94z m1091 -109 c61 -109 105 -196 97 -193 -25 10 -315 188 -321
197 -7 11 102 207 110 198 1 -1 53 -92 114 -202z m-851 -325 c105 -187 160
-297 154 -303 -6 -6 -125 56 -328 170 -401 225 -388 198 -167 334 87 53 163
96 168 94 6 -1 84 -134 173 -295z m773 205 c147 -90 154 -96 154 -126 0 -30
-6 -35 -120 -99 -66 -37 -210 -118 -319 -180 -126 -70 -203 -108 -209 -102 -6
6 38 94 119 238 181 324 204 363 212 363 5 0 78 -42 163 -94z"/>
</g>
</svg>
