<?xml version="1.0" standalone="no"?>
<!DOCTYPE svg PUBLIC "-//W3C//DTD SVG 20010904//EN"
 "http://www.w3.org/TR/2001/REC-SVG-20010904/DTD/svg10.dtd">
<svg version="1.0" xmlns="http://www.w3.org/2000/svg"
 width="200.000000pt" height="200.000000pt" viewBox="0 0 200.000000 200.000000"
 preserveAspectRatio="xMidYMid meet">

<g transform="translate(0.000000,200.000000) scale(0.100000,-0.100000)"
fill="#000000" stroke="none">
<path d="M0 1000 l0 -1000 1000 0 1000 0 0 1000 0 1000 -1000 0 -1000 0 0
-1000z m1428 313 c-236 -2 -620 -2 -855 0 -236 1 -43 2 427 2 470 0 663 -1
428 -2z m-794 -189 c29 -11 16 -24 -24 -24 -38 0 -60 -18 -60 -49 0 -20 33
-41 66 -41 35 0 46 -13 18 -24 -28 -11 -51 -6 -78 15 -65 51 0 153 78 123z
m396 -14 c11 -11 20 -26 20 -33 0 -8 -9 -22 -20 -32 -11 -10 -20 -29 -20 -41
0 -19 -4 -23 -22 -20 -13 3 -27 5 -33 5 -5 1 8 18 28 39 41 42 48 72 18 72
-11 0 -21 -5 -23 -11 -2 -7 -10 -10 -18 -7 -10 3 -9 9 8 26 27 27 37 27 62 2z
m611 10 c34 -18 21 -30 -26 -24 -40 6 -45 4 -56 -18 -17 -39 3 -68 46 -68 37
0 56 16 31 26 -26 10 -18 24 14 24 37 0 40 -21 5 -55 -30 -30 -64 -32 -99 -4
-68 54 7 160 85 119z m-1441 -65 c0 -37 -4 -65 -10 -65 -5 0 -10 25 -10 55 0
42 -3 55 -15 55 -8 0 -15 5 -15 10 0 6 11 10 25 10 24 0 25 -2 25 -65z m40 55
c0 -5 -4 -10 -10 -10 -5 0 -10 5 -10 10 0 6 5 10 10 10 6 0 10 -4 10 -10z
m190 0 c0 -5 -13 -10 -30 -10 -20 0 -30 -5 -30 -15 0 -10 10 -15 30 -15 17 0
30 -4 30 -10 0 -5 -13 -10 -30 -10 -23 0 -30 -4 -30 -20 0 -16 7 -20 30 -20
17 0 30 -4 30 -10 0 -5 -8 -10 -17 -10 -10 0 -28 -3 -40 -6 -22 -6 -23 -4 -23
65 l0 71 40 0 c22 0 40 -4 40 -10z m340 -15 c0 -23 4 -25 41 -25 l40 0 -3 -40
c-4 -49 -22 -58 -26 -12 -3 26 -7 32 -28 32 -20 0 -24 -5 -24 -30 0 -20 -5
-30 -15 -30 -12 0 -15 14 -15 65 0 51 3 65 15 65 9 0 15 -9 15 -25z m78 8 c-4
-22 -22 -20 -26 1 -2 10 3 16 13 16 10 0 15 -7 13 -17z m392 7 c0 -5 -13 -10
-30 -10 -20 0 -30 -5 -30 -15 0 -10 10 -15 30 -15 17 0 30 -4 30 -10 0 -5 -13
-10 -30 -10 -23 0 -30 -4 -30 -20 0 -16 7 -20 30 -20 17 0 30 -4 30 -10 0 -5
-18 -10 -40 -10 l-40 0 0 65 0 65 40 0 c22 0 40 -4 40 -10z m194 -6 c22 -22
30 -59 17 -83 -11 -20 -76 -45 -93 -35 -4 3 -8 34 -8 70 l0 64 34 0 c19 0 42
-7 50 -16z m356 -9 c0 -21 5 -25 30 -25 17 0 30 -4 30 -10 0 -5 -13 -10 -30
-10 -23 0 -30 -4 -30 -20 0 -16 7 -20 31 -20 20 0 29 -4 26 -12 -3 -11 -31
-14 -69 -9 -12 2 -10 131 2 131 6 0 10 -11 10 -25z m60 15 c0 -5 -11 -10 -25
-10 -14 0 -25 5 -25 10 0 6 11 10 25 10 14 0 25 -4 25 -10z m-806 -121 c-3 -5
-10 -7 -15 -3 -5 3 -7 10 -3 15 3 5 10 7 15 3 5 -3 7 -10 3 -15z m-843 -98
c-7 -5 -17 -15 -22 -22 -6 -10 -9 -8 -9 9 0 16 6 22 23 22 16 0 18 -3 8 -9z
m1220 -12 c8 -15 8 -19 0 -15 -6 4 -11 2 -11 -3 0 -6 -7 -11 -15 -11 -15 0
-21 31 -8 43 11 12 22 8 34 -14z m399 -4 c0 -18 -5 -25 -20 -25 -23 0 -24 4
-10 31 15 27 30 24 30 -6z m-392 -192 c-236 -2 -620 -2 -855 0 -236 1 -43 2
427 2 470 0 663 -1 428 -2z"/>
<path d="M1370 1055 c0 -37 3 -45 18 -45 24 0 42 19 42 45 0 26 -18 45 -42 45
-15 0 -18 -8 -18 -45z"/>
</g>
</svg>
